<svg width="15" height="16" viewBox="0 0 15 16" fill="none" xmlns="http://www.w3.org/2000/svg">
<path d="M13.5 0.96875H0.5625C0.251367 0.96875 0 1.22012 0 1.53125V14.4688C0 14.7799 0.251367 15.0312 0.5625 15.0312H13.5C13.8111 15.0312 14.0625 14.7799 14.0625 14.4688V1.53125C14.0625 1.22012 13.8111 0.96875 13.5 0.96875ZM5.76914 12.4473H4.87617C4.8375 12.4473 4.79707 12.4279 4.77246 12.3963L4.14844 11.6316L3.52441 12.3963C3.51224 12.4122 3.49654 12.4251 3.47855 12.434C3.46055 12.4428 3.44075 12.4474 3.4207 12.4473H2.52773C2.41172 12.4473 2.34844 12.3084 2.42578 12.217L3.52793 10.867L2.45215 9.55039C2.37656 9.45898 2.43984 9.32012 2.55586 9.32012H3.45059C3.48926 9.32012 3.52969 9.33945 3.5543 9.37109L4.15195 10.1023L4.74961 9.37109C4.77598 9.3377 4.81289 9.32012 4.85332 9.32012H5.74629C5.8623 9.32012 5.92559 9.45898 5.85 9.55039L4.77246 10.8652L5.87461 12.2152C5.94844 12.3084 5.88516 12.4473 5.76914 12.4473ZM5.90625 5.73242C5.90625 5.77109 5.88164 5.80273 5.85 5.80273H4.64062V7.01035C4.64062 7.04375 4.60898 7.06836 4.57031 7.06836H3.72656C3.68789 7.06836 3.65625 7.04375 3.65625 7.01211V5.80273H2.44687C2.41523 5.80273 2.39062 5.77109 2.39062 5.73242V4.88867C2.39062 4.85 2.41523 4.81836 2.44687 4.81836H3.65625V3.60898C3.65625 3.57734 3.68789 3.55273 3.72656 3.55273H4.57031C4.60898 3.55273 4.64062 3.57734 4.64062 3.60898V4.81836H5.84824C5.88164 4.81836 5.90625 4.85 5.90625 4.88867V5.73242ZM11.6719 12.2188C11.6719 12.2574 11.6473 12.2891 11.6156 12.2891H8.2125C8.18086 12.2891 8.15625 12.2574 8.15625 12.2188V11.375C8.15625 11.3363 8.18086 11.3047 8.2125 11.3047H11.6139C11.6473 11.3047 11.6719 11.3363 11.6719 11.375V12.2188ZM11.6719 10.3906C11.6719 10.4293 11.6473 10.4609 11.6156 10.4609H8.2125C8.18086 10.4609 8.15625 10.4293 8.15625 10.3906V9.54688C8.15625 9.5082 8.18086 9.47656 8.2125 9.47656H11.6139C11.6473 9.47656 11.6719 9.5082 11.6719 9.54688V10.3906ZM11.6719 5.73242C11.6719 5.77109 11.6473 5.80273 11.6156 5.80273H8.2125C8.18086 5.80273 8.15625 5.77109 8.15625 5.73242V4.88867C8.15625 4.85 8.18086 4.81836 8.2125 4.81836H11.6139C11.6473 4.81836 11.6719 4.85 11.6719 4.88867V5.73242Z" fill="white"/>
</svg>
