<svg width="101" height="56" viewBox="0 0 101 56" fill="none" xmlns="http://www.w3.org/2000/svg">
<g filter="url(#filter0_d_2_301)">
<circle cx="50.2416" cy="32.2416" r="10.2416" fill="url(#paint0_linear_2_301)"/>
</g>
<path d="M54.5036 27.9752C53.4167 26.8922 51.9711 26.2955 50.4309 26.2949C47.2575 26.2949 44.6748 28.8651 44.6735 32.0243C44.6731 33.0341 44.9382 34.0199 45.442 34.8888L44.6252 37.858L47.6773 37.0612C48.5183 37.5176 49.465 37.7582 50.4286 37.7586H50.431C53.6041 37.7586 56.1871 35.1881 56.1883 32.0288C56.189 30.4979 55.5907 29.0583 54.5036 27.9752ZM50.431 36.7909H50.429C49.5704 36.7906 48.7282 36.561 47.9935 36.1271L47.8187 36.0239L46.0076 36.4967L46.491 34.7393L46.3772 34.5591C45.8982 33.8009 45.6452 32.9245 45.6456 32.0247C45.6466 29.3989 47.7933 27.2626 50.4328 27.2626C51.711 27.2631 52.9125 27.7591 53.816 28.6593C54.7194 29.5594 55.2167 30.756 55.2163 32.0285C55.2152 34.6545 53.0685 36.7909 50.431 36.7909ZM53.0558 33.2241C52.912 33.1525 52.2047 32.8061 52.0728 32.7583C51.941 32.7105 51.8451 32.6867 51.7491 32.83C51.6533 32.9733 51.3776 33.2958 51.2936 33.3914C51.2097 33.4869 51.1258 33.4989 50.982 33.4272C50.8381 33.3555 50.3746 33.2043 49.8251 32.7166C49.3975 32.337 49.1087 31.8681 49.0248 31.7248C48.9409 31.5815 49.0159 31.504 49.0879 31.4326C49.1526 31.3685 49.2318 31.2654 49.3037 31.1818C49.3756 31.0982 49.3996 31.0385 49.4475 30.9429C49.4955 30.8474 49.4715 30.7637 49.4356 30.6921C49.3996 30.6204 49.1119 29.9157 48.992 29.6291C48.8752 29.3499 48.7566 29.3877 48.6683 29.3833C48.5845 29.3792 48.4885 29.3783 48.3926 29.3783C48.2967 29.3783 48.1409 29.4141 48.009 29.5574C47.8771 29.7008 47.5055 30.0471 47.5055 30.7518C47.5055 31.4565 48.021 32.1373 48.0929 32.2328C48.1648 32.3284 49.1073 33.7745 50.5504 34.3946C50.8936 34.5421 51.1616 34.6302 51.3705 34.6962C51.7151 34.8051 52.0287 34.7898 52.2766 34.7529C52.553 34.7118 53.1277 34.4066 53.2476 34.0722C53.3675 33.7377 53.3675 33.4511 53.3315 33.3914C53.2956 33.3316 53.1997 33.2958 53.0558 33.2241Z" fill="white"/>
<defs>
<filter id="filter0_d_2_301" x="0" y="-45" width="100.483" height="100.483" filterUnits="userSpaceOnUse" color-interpolation-filters="sRGB">
<feFlood flood-opacity="0" result="BackgroundImageFix"/>
<feColorMatrix in="SourceAlpha" type="matrix" values="0 0 0 0 0 0 0 0 0 0 0 0 0 0 0 0 0 0 127 0" result="hardAlpha"/>
<feOffset dy="-27"/>
<feGaussianBlur stdDeviation="20"/>
<feComposite in2="hardAlpha" operator="out"/>
<feColorMatrix type="matrix" values="0 0 0 0 0.321569 0 0 0 0 0.917647 0 0 0 0 0.396078 0 0 0 0.53 0"/>
<feBlend mode="normal" in2="BackgroundImageFix" result="effect1_dropShadow_2_301"/>
<feBlend mode="normal" in="SourceGraphic" in2="effect1_dropShadow_2_301" result="shape"/>
</filter>
<linearGradient id="paint0_linear_2_301" x1="50.2416" y1="22" x2="50.2416" y2="42.4832" gradientUnits="userSpaceOnUse">
<stop stop-color="#61FD7D"/>
<stop offset="1" stop-color="#2BB826"/>
</linearGradient>
</defs>
</svg>
