<svg width="221" height="70" viewBox="0 0 221 70" fill="none" xmlns="http://www.w3.org/2000/svg">
<path d="M36.003 34.4048C36.7549 34.3483 37.3299 33.6938 37.1452 32.9696C36.8486 31.8069 36.2857 30.7205 35.4931 29.7983C34.4037 28.5308 32.9364 27.6385 31.3022 27.2498C29.6683 26.861 27.9518 26.9957 26.3999 27.6348C24.8482 28.2736 23.5413 29.3839 22.667 30.8056C21.7928 32.2271 21.3967 33.8869 21.5354 35.5457C21.6743 37.2046 22.341 38.7769 23.4395 40.0367C24.5381 41.2963 26.0117 42.1782 27.6485 42.5554C28.8396 42.8299 30.0722 42.827 31.2514 42.5545C31.9857 42.3848 32.3093 41.5783 32.0147 40.8907C31.7202 40.2031 30.9162 39.902 30.1694 40.0055C29.5394 40.0928 28.8947 40.0655 28.2673 39.9211C27.1936 39.6734 26.2268 39.0951 25.506 38.2686C24.7854 37.4421 24.348 36.4105 24.2569 35.3224C24.1659 34.234 24.4258 33.1451 24.9992 32.2125C25.5729 31.2799 26.4303 30.5515 27.4483 30.1324C28.4664 29.7131 29.5924 29.6247 30.6644 29.8796C31.7363 30.1348 32.6991 30.7203 33.4136 31.5517C33.8312 32.0375 34.1514 32.5924 34.3621 33.1869C34.6122 33.8916 35.2511 34.4611 36.003 34.4048Z" fill="#3A6FC4"/>
<path d="M37.962 28.0095C38.4737 27.5955 38.5538 26.8443 38.0877 26.3804C36.5971 24.8965 34.737 23.817 32.6862 23.2572C30.6356 22.6974 28.4799 22.6806 26.4322 23.1985C25.7919 23.3605 25.4721 24.0463 25.6975 24.6614C25.923 25.2766 26.6084 25.5865 27.2523 25.4399C28.8294 25.0805 30.4784 25.1127 32.0506 25.5417C33.6226 25.9711 35.0555 26.7803 36.2241 27.889C36.7013 28.3417 37.4503 28.4233 37.962 28.0095Z" fill="#3A6FC4"/>
<path d="M21.3578 27.5244C20.8716 27.0814 20.1094 27.1095 19.712 27.6323C18.5965 29.099 17.8303 30.8031 17.4782 32.6167C17.0506 34.8195 17.2512 37.0965 18.057 39.1925C18.8631 41.2887 20.2427 43.1209 22.0411 44.4839C23.8396 45.8469 25.9857 46.6867 28.2392 46.9091C30.4926 47.1315 32.764 46.7279 34.7985 45.743C36.8332 44.7584 38.5506 43.2319 39.7582 41.3346C40.9662 39.437 41.6163 37.244 41.636 35.0011C41.6523 33.1543 41.2406 31.3341 40.4392 29.678C40.1536 29.0879 39.412 28.9113 38.8471 29.2507C38.2822 29.5898 38.1093 30.3164 38.3806 30.9132C38.9596 32.1869 39.2559 33.5743 39.2434 34.9805C39.2275 36.783 38.7051 38.5456 37.7345 40.0706C36.7639 41.5955 35.3835 42.8225 33.7482 43.6138C32.1129 44.4053 30.2875 44.7298 28.4765 44.551C26.6654 44.3722 24.9404 43.6973 23.495 42.6019C22.0496 41.5065 20.9407 40.0338 20.293 38.3491C19.6454 36.6645 19.4841 34.8343 19.8279 33.0641C20.0958 31.6832 20.6627 30.3811 21.484 29.2454C21.8688 28.7135 21.844 27.9674 21.3578 27.5244Z" fill="#3A6FC4"/>
<path d="M40.4485 23.9723C40.9544 23.4699 40.9564 22.6525 40.4118 22.1915C38.3677 20.4608 35.9304 19.2349 33.2999 18.624C30.2478 17.9151 27.0566 18.0624 24.0841 19.0495C21.1117 20.0365 18.4756 21.8242 16.4717 24.2122C14.4676 26.6 13.1748 29.4937 12.7382 32.5686C12.3016 35.6437 12.7385 38.7782 13.9998 41.621C15.2612 44.4637 17.2972 46.9022 19.8794 48.663C22.4618 50.4239 25.4882 51.4374 28.6195 51.5898C31.3177 51.7211 34.0021 51.2087 36.4488 50.1036C37.1005 49.8092 37.3262 49.0228 36.98 48.4019C36.6336 47.781 35.8465 47.5614 35.1908 47.8468C33.1693 48.7262 30.9637 49.1318 28.7467 49.0239C26.0967 48.895 23.5355 48.0373 21.3501 46.5471C19.1648 45.0569 17.4417 42.9933 16.3742 40.5874C15.3067 38.1817 14.937 35.5288 15.3065 32.9264C15.676 30.3242 16.7701 27.8753 18.4662 25.8544C20.1621 23.8334 22.3929 22.3205 24.9085 21.4852C27.4241 20.6498 30.1248 20.5251 32.7079 21.1251C34.869 21.627 36.8762 22.6195 38.5744 24.0171C39.1252 24.4703 39.9428 24.4745 40.4485 23.9723Z" fill="#3A6FC4"/>
<path d="M43.8461 20.5981C44.3357 20.1121 44.337 19.322 43.8186 18.8662C41.1351 16.5059 37.8956 14.839 34.3888 14.0246C30.4739 13.1153 26.3805 13.3043 22.5681 14.5704C18.7556 15.8364 15.3745 18.1294 12.804 21.1922C10.2336 24.255 8.57534 27.9666 8.01536 31.9107C7.45537 35.8546 8.01574 39.8752 9.63363 43.5214C11.2515 47.1678 13.8629 50.2955 17.1751 52.5539C20.4873 54.8125 24.3691 56.1123 28.3853 56.3079C31.9828 56.4829 35.561 55.7659 38.7976 54.2303C39.4226 53.9337 39.6414 53.1739 39.3063 52.5729C38.9711 51.9719 38.2091 51.7579 37.5818 52.0499C34.7552 53.3648 31.6402 53.9771 28.5085 53.8247C24.9579 53.6519 21.5263 52.5027 18.5983 50.5061C15.6703 48.5096 13.3617 45.7446 11.9315 42.5213C10.5012 39.2979 10.0058 35.7434 10.5009 32.257C10.9959 28.7702 12.4618 25.4891 14.7342 22.7815C17.0064 20.0738 19.9955 18.0467 23.366 16.9275C26.7364 15.8083 30.3549 15.6412 33.8158 16.445C36.8686 17.154 39.6921 18.5937 42.0429 20.6298C42.5646 21.0817 43.3568 21.0842 43.8461 20.5981Z" fill="#3A6FC4"/>
<path d="M4.12128 33.6266C3.42299 33.5916 2.8251 34.1242 2.823 34.8166C2.81251 38.2619 3.48371 41.68 4.80313 44.8765C6.28246 48.4602 8.54033 51.6773 11.4164 54.2995C14.2924 56.9216 17.7162 58.8842 21.4444 60.0481C24.7695 61.0861 28.264 61.466 31.7294 61.1708C32.426 61.1116 32.9125 60.4774 32.8194 59.7909C32.7266 59.1044 32.0895 58.6262 31.3926 58.682C28.296 58.9305 25.1759 58.5836 22.2054 57.6561C18.8318 56.603 15.7337 54.8271 13.1312 52.4542C10.5286 50.0815 8.48547 47.1703 7.14682 43.9273C5.9681 41.0717 5.36108 38.0207 5.35493 34.9436C5.35354 34.2509 4.81959 33.6616 4.12128 33.6266Z" fill="#E7BE56"/>
<path d="M43.2512 13.8255C43.6319 13.2445 43.4664 12.4651 42.8623 12.1162C39.659 10.2655 36.0964 9.0957 32.4015 8.6872C28.2867 8.23225 24.1215 8.7341 20.2368 10.1528C16.3522 11.5716 12.8551 13.8681 10.0235 16.86C7.48083 19.5465 5.53764 22.7273 4.31403 26.1947C4.08332 26.8484 4.46821 27.5478 5.13848 27.7449C5.80872 27.9421 6.51025 27.5624 6.74425 26.9098C7.85362 23.8156 9.59741 20.9772 11.8707 18.5752C14.4331 15.8679 17.5975 13.7897 21.1128 12.5059C24.628 11.2221 28.3971 10.768 32.1206 11.1796C35.4241 11.5449 38.6108 12.5827 41.4824 14.2227C42.0883 14.5687 42.8706 14.4064 43.2512 13.8255Z" fill="#3A6FC4"/>
<path d="M36.2797 59.085C36.4683 59.752 37.168 60.1443 37.8316 59.9261C42.858 58.2747 47.2739 55.175 50.5125 51.0249C50.9401 50.4771 50.7983 49.6931 50.2256 49.2959C49.6526 48.899 48.8658 49.0394 48.4355 49.5852C45.5362 53.262 41.6114 56.017 37.1486 57.5081C36.4859 57.7294 36.0914 58.4181 36.2797 59.085Z" fill="#3A6FC4"/>
<path d="M52.0814 46.2236C52.7056 46.5359 53.47 46.2891 53.7554 45.6569C55.3023 42.2287 56.0942 38.5078 56.0723 34.7433C56.0502 30.9786 55.2149 27.2673 53.6279 23.857C53.3351 23.2281 52.5678 22.99 51.9476 23.3094C51.3273 23.6291 51.0891 24.3849 51.3785 25.0153C52.7821 28.0714 53.5205 31.3911 53.5402 34.7577C53.5599 38.1246 52.8601 41.4525 51.4925 44.5245C51.2103 45.1583 51.4574 45.9112 52.0814 46.2236Z" fill="#E7BE56"/>
<path d="M41.4136 51.2467C41.8205 51.8025 42.6079 51.9292 43.1444 51.4946C46.7203 48.6 49.277 44.6394 50.4219 40.1856C51.5669 35.7315 51.2337 31.0424 49.491 26.8063C49.2294 26.1705 48.4768 25.9087 47.851 26.2042C47.2255 26.4997 46.9643 27.2402 47.221 27.878C48.7141 31.5878 48.9896 35.6814 47.9895 39.5722C46.9893 43.4627 44.7708 46.9275 41.6684 49.4781C41.135 49.9167 41.0068 50.6907 41.4136 51.2467Z" fill="#E7BE56"/>
<path d="M44.4473 39.3231C45.0945 39.514 45.7802 39.1498 45.9258 38.4966C46.3809 36.4526 46.4453 34.3382 46.1114 32.2642C45.7775 30.1901 45.0525 28.2004 43.9781 26.3979C43.6346 25.8219 42.8686 25.687 42.3135 26.0678C41.7582 26.4488 41.6249 27.2011 41.9612 27.7813C42.831 29.2823 43.4201 30.9302 43.6963 32.6456C43.9725 34.361 43.93 36.1088 43.5746 37.803C43.4371 38.458 43.8001 39.1321 44.4473 39.3231Z" fill="#3A6FC4"/>
<path d="M38.5106 47.4538C38.8982 48.0018 39.6639 48.138 40.1875 47.7156C42.0176 46.2392 43.5149 44.3986 44.5819 42.3134C44.8872 41.7166 44.5897 41.0047 43.9669 40.7462C43.344 40.4876 42.6319 40.7814 42.3193 41.3742C41.4401 43.0413 40.2371 44.5202 38.7799 45.7257C38.2614 46.1545 38.1232 46.9059 38.5106 47.4538Z" fill="#3A6FC4"/>
<path d="M33.0398 40.3495C33.4517 40.9751 34.308 41.1589 34.8598 40.6497C35.4267 40.1264 35.9152 39.5224 36.3077 38.8549C36.7004 38.1875 36.9902 37.4686 37.17 36.7221C37.3454 35.9955 36.7617 35.3485 36.0091 35.302C35.2563 35.2552 34.6249 35.8329 34.3845 36.5409C34.2725 36.871 34.1264 37.1902 33.9482 37.4932C33.77 37.7961 33.5617 38.0794 33.3269 38.3388C32.8237 38.895 32.6278 39.7239 33.0398 40.3495Z" fill="#E7BE56"/>
<path d="M29.4478 37.8868C31.1153 37.8868 32.467 36.5479 32.467 34.8963C32.467 33.2447 31.1153 31.9058 29.4478 31.9058C27.7803 31.9058 26.4286 33.2447 26.4286 34.8963C26.4286 36.5479 27.7803 37.8868 29.4478 37.8868Z" fill="#3A6FC4"/>
<path d="M49.9113 14.5096L42.4192 22.0515M29.3359 35.2216L42.4192 22.0515L29.3359 35.2216ZM49.9113 14.5096L49.3734 7.90426C49.3656 7.80659 49.2428 7.7665 49.1777 7.84031L42.4467 15.4751C42.429 15.4953 42.4192 15.5212 42.4192 15.548V22.0515L49.9113 14.5096ZM49.9113 14.5096H56.1125C56.2141 14.5096 56.263 14.633 56.1886 14.7015L48.488 21.7918C48.4683 21.8098 48.4428 21.8203 48.4162 21.8213L42.4192 22.0515L49.9113 14.5096Z" stroke="#3A6FC4" stroke-width="2.2"/>
<path d="M65.8386 18.1937H79.4922V31.7912H75.8181V21.3902H69.463V31.7912H65.8386V18.1937ZM86.4822 22.0787C85.7209 22.8163 85.3403 23.7917 85.3403 25.0047C85.3403 26.2178 85.7209 27.2013 86.4822 27.9553C87.26 28.693 88.2365 29.0618 89.4115 29.0618C90.57 29.0618 91.5299 28.693 92.2912 27.9553C93.069 27.2013 93.4579 26.2178 93.4579 25.0047C93.4579 23.7917 93.069 22.8163 92.2912 22.0787C91.5299 21.3246 90.57 20.9476 89.4115 20.9476C88.2365 20.9476 87.26 21.3246 86.4822 22.0787ZM94.8481 19.8903C96.3707 21.2345 97.132 22.9393 97.132 25.0047C97.132 27.0702 96.3707 28.775 94.8481 30.1191C93.3255 31.4633 91.5133 32.1354 89.4115 32.1354C87.3097 32.1354 85.4975 31.4633 83.9749 30.1191C82.4523 28.775 81.691 27.0702 81.691 25.0047C81.691 22.9393 82.4523 21.2345 83.9749 19.8903C85.4975 18.5461 87.3097 17.874 89.4115 17.874C91.5133 17.874 93.3255 18.5461 94.8481 19.8903ZM99.3422 18.1937H102.967V26.8243L110.191 18.1937H113.666V31.7912H110.042V23.2097L102.843 31.7912H99.3422V18.1937ZM130.643 21.7344L127.813 23.3327C127.284 22.5623 126.68 21.9967 126.001 21.6361C125.339 21.2591 124.503 21.0705 123.494 21.0705C122.269 21.0705 121.285 21.4312 120.54 22.1524C119.812 22.8573 119.448 23.8081 119.448 25.0047C119.448 26.185 119.82 27.1357 120.565 27.857C121.309 28.5783 122.286 28.9389 123.494 28.9389C125.381 28.9389 126.812 28.193 127.789 26.7013L130.619 28.275C129.228 30.8486 126.87 32.1354 123.544 32.1354C121.293 32.1354 119.439 31.4879 117.983 30.1929C116.543 28.8979 115.823 27.1685 115.823 25.0047C115.823 22.8573 116.551 21.1361 118.008 19.8411C119.481 18.5297 121.326 17.874 123.544 17.874C126.854 17.874 129.22 19.1608 130.643 21.7344ZM132.749 18.1937H136.373V22.9885H139.6L142.902 18.1937H147.122L142.703 24.4884L147.42 31.7912H143.076L139.7 26.3079H136.373V31.7912H132.749V18.1937ZM152.859 22.0787C152.098 22.8163 151.717 23.7917 151.717 25.0047C151.717 26.2178 152.098 27.2013 152.859 27.9553C153.637 28.693 154.613 29.0618 155.788 29.0618C156.947 29.0618 157.907 28.693 158.668 27.9553C159.446 27.2013 159.835 26.2178 159.835 25.0047C159.835 23.7917 159.446 22.8163 158.668 22.0787C157.907 21.3246 156.947 20.9476 155.788 20.9476C154.613 20.9476 153.637 21.3246 152.859 22.0787ZM161.225 19.8903C162.747 21.2345 163.509 22.9393 163.509 25.0047C163.509 27.0702 162.747 28.775 161.225 30.1191C159.702 31.4633 157.89 32.1354 155.788 32.1354C153.686 32.1354 151.874 31.4633 150.352 30.1191C148.829 28.775 148.068 27.0702 148.068 25.0047C148.068 22.9393 148.829 21.2345 150.352 19.8903C151.874 18.5461 153.686 17.874 155.788 17.874C157.89 17.874 159.702 18.5461 161.225 19.8903ZM165.719 18.1937H174.631C175.889 18.1937 176.915 18.5379 177.709 19.2264C178.52 19.9149 178.926 20.8247 178.926 21.9557C178.926 22.9393 178.603 23.6523 177.958 24.0949C179.215 24.8162 179.844 25.9555 179.844 27.5128C179.844 28.7094 179.406 29.7257 178.529 30.5617C177.668 31.3814 176.609 31.7912 175.351 31.7912H165.719V18.1937ZM169.368 21.4394V23.2589H174.606C174.788 23.2589 174.954 23.1688 175.103 22.9885C175.268 22.7917 175.351 22.5786 175.351 22.3491C175.351 22.136 175.277 21.9311 175.128 21.7344C174.995 21.5377 174.78 21.4394 174.482 21.4394H169.368ZM169.368 26.4063V28.5209H175.252C175.55 28.5209 175.79 28.4307 175.972 28.2504C176.17 28.0537 176.27 27.7996 176.27 27.4882C176.27 27.1767 176.162 26.9226 175.947 26.7259C175.732 26.5128 175.467 26.4063 175.152 26.4063H169.368ZM188.86 21.4148L186.675 26.6522H191.516L189.431 21.4148H188.86ZM186.526 18.1937H191.839L197.672 31.7912H193.8L192.931 29.7995H185.335L184.49 31.7912H180.568L186.526 18.1937ZM212.894 18.1937V31.7912H209.245V28.9389H204.975L203.51 31.7912H199.538L201.599 28.1029C200.837 27.6603 200.217 27.0538 199.737 26.2833C199.273 25.4965 199.042 24.6031 199.042 23.6032C199.042 21.9967 199.588 20.6935 200.68 19.6936C201.772 18.6936 203.146 18.1937 204.801 18.1937H212.894ZM209.245 21.4885H204.925C204.263 21.4885 203.725 21.6771 203.312 22.0541C202.898 22.4311 202.691 22.9475 202.691 23.6032C202.691 24.2425 202.898 24.7424 203.312 25.1031C203.725 25.4473 204.263 25.6194 204.925 25.6194H209.245V21.4885ZM65.8386 38.7949H69.463V47.4255L76.687 38.7949H80.1624V52.3924H76.538V43.811L69.3389 52.3924H65.8386V38.7949ZM82.7914 38.7949H86.4406V43.7618H93.1681V38.7949H96.8421V52.3924H93.1681V47.0075H86.4406V52.3924H82.7914V38.7949ZM102.879 38.7949H114.075V49.1467H115.639V54.8759H112.461L112.188 52.3924H102.656L102.407 54.8759H99.2049V49.1467H100.893L102.879 38.7949ZM105.883 41.9423L104.691 49.1467H110.426V41.9423H105.883ZM116.825 38.7949H120.599L122.485 44.3765C122.601 44.7044 122.833 44.8683 123.18 44.8683H126.656L128.716 38.7949H132.465L128.791 49.491C128.493 50.3434 127.972 51.0401 127.227 51.581C126.482 52.122 125.655 52.3924 124.744 52.3924H120.698V49.3434H124.595C125.026 49.3434 125.324 49.1222 125.489 48.6796L125.663 48.0894H123.031C121.956 48.0894 121.103 47.8599 120.474 47.4009C119.846 46.942 119.357 46.2125 119.01 45.2126L116.825 38.7949ZM148.126 42.3357L145.296 43.934C144.767 43.1635 144.163 42.598 143.484 42.2373C142.822 41.8603 141.986 41.6718 140.977 41.6718C139.752 41.6718 138.767 42.0324 138.023 42.7537C137.294 43.4586 136.93 44.4093 136.93 45.606C136.93 46.7862 137.303 47.737 138.047 48.4583C138.792 49.1795 139.769 49.5402 140.977 49.5402C142.863 49.5402 144.295 48.7943 145.271 47.3026L148.101 48.8763C146.711 51.4499 144.353 52.7367 141.026 52.7367C138.776 52.7367 136.922 52.0892 135.466 50.7942C134.026 49.4992 133.306 47.7698 133.306 45.606C133.306 43.4586 134.034 41.7374 135.49 40.4424C136.963 39.131 138.809 38.4753 141.026 38.4753C144.336 38.4753 146.703 39.7621 148.126 42.3357ZM149.865 38.7949H164.213V42.0406H158.876V52.3924H155.202V42.0406H149.865V38.7949ZM166.415 38.7949H174.533C176.205 38.7949 177.578 39.3031 178.654 40.3194C179.73 41.3194 180.268 42.6144 180.268 44.2044C180.268 45.7945 179.73 47.0731 178.654 48.0402C177.578 49.0074 176.205 49.491 174.533 49.491H170.065V52.3924H166.415V38.7949ZM170.065 42.0898V46.1961H174.384C175.046 46.1961 175.576 46.024 175.973 45.6797C176.387 45.3355 176.594 44.8437 176.594 44.2044C176.594 43.5651 176.387 43.057 175.973 42.6799C175.576 42.2865 175.046 42.0898 174.384 42.0898H170.065ZM182.471 38.7949H186.096V47.4255L193.32 38.7949H196.795V52.3924H193.171V43.811L185.971 52.3924H182.471V38.7949ZM212.804 38.7949V52.3924H209.155V49.5402H204.885L203.42 52.3924H199.449L201.509 48.7041C200.748 48.2615 200.127 47.655 199.647 46.8846C199.184 46.0978 198.952 45.2044 198.952 44.2044C198.952 42.598 199.498 41.2948 200.59 40.2948C201.683 39.2949 203.056 38.7949 204.711 38.7949H212.804ZM209.155 42.0898H204.835C204.174 42.0898 203.636 42.2783 203.222 42.6553C202.808 43.0324 202.601 43.5487 202.601 44.2044C202.601 44.8437 202.808 45.3437 203.222 45.7043C203.636 46.0486 204.174 46.2207 204.835 46.2207H209.155V42.0898Z" fill="#1F232E"/>
</svg>
