<svg width="13" height="12" viewBox="0 0 13 12" fill="none" xmlns="http://www.w3.org/2000/svg">
<path d="M10.5036 1.97524C9.41666 0.892212 7.97109 0.29547 6.43092 0.294861C3.25754 0.294861 0.674788 2.86507 0.673518 6.02429C0.673111 7.03414 0.93822 8.01989 1.44204 8.88878L0.625244 11.858L3.67732 11.0612C4.51826 11.5176 5.46503 11.7582 6.42863 11.7586H6.431C9.60407 11.7586 12.1871 9.18809 12.1883 6.02884C12.189 4.49786 11.5907 3.05826 10.5036 1.97524V1.97524ZM6.431 10.7909H6.42904C5.57037 10.7906 4.72818 10.561 3.99346 10.1271L3.81871 10.0239L2.00756 10.4967L2.491 8.73933L2.37719 8.55914C1.89817 7.8009 1.64518 6.92449 1.64556 6.02466C1.6466 3.39887 3.79329 1.26258 6.43285 1.26258C7.71099 1.26307 8.91248 1.75911 9.81596 2.65926C10.7194 3.55941 11.2167 4.75597 11.2163 6.02848C11.2152 8.6545 9.06853 10.7909 6.431 10.7909V10.7909ZM9.05583 7.22414C8.91195 7.15248 8.20471 6.80611 8.07283 6.75834C7.94098 6.71054 7.84509 6.68666 7.74915 6.83001C7.65327 6.97333 7.37758 7.29581 7.29364 7.39135C7.20973 7.48691 7.12581 7.49886 6.98196 7.42719C6.8381 7.35553 6.37457 7.20435 5.8251 6.7166C5.39747 6.33702 5.10873 5.86814 5.02482 5.72479C4.94091 5.58146 5.0159 5.50399 5.08791 5.4326C5.15261 5.36847 5.23176 5.26539 5.30369 5.18179C5.37561 5.09821 5.3996 5.03846 5.44754 4.94292C5.4955 4.84736 5.47152 4.76375 5.43555 4.69209C5.3996 4.62043 5.11188 3.91574 4.992 3.62909C4.87524 3.34992 4.75662 3.38769 4.66832 3.3833C4.5845 3.37915 4.4885 3.37828 4.39261 3.37828C4.29672 3.37828 4.14086 3.4141 4.009 3.55743C3.87714 3.70077 3.50551 4.04713 3.50551 4.75181C3.50551 5.45648 4.02098 6.13727 4.09291 6.23281C4.16485 6.32837 5.1073 7.77448 6.55039 8.39461C6.89363 8.54211 7.16158 8.63021 7.37051 8.6962C7.71512 8.80513 8.02873 8.78977 8.27662 8.75292C8.55301 8.71183 9.12772 8.40659 9.24763 8.07216C9.36751 7.73772 9.36751 7.45108 9.33154 7.39137C9.29558 7.33165 9.19969 7.29581 9.05583 7.22414V7.22414Z" fill="white"/>
</svg>
